<?xml version="1.0" encoding="UTF-8"?>
<svg version="1.1" xmlns="http://www.w3.org/2000/svg" width="71" height="87">
<path d="M0 0 C23.43 0 46.86 0 71 0 C71 28.71 71 57.42 71 87 C47.57 87 24.14 87 0 87 C0 58.29 0 29.58 0 0 Z " fill="#DA2034" transform="translate(0,0)"/>
<path d="M0 0 C23.43 0 46.86 0 71 0 C71 4.29 71 8.58 71 13 C47.57 13 24.14 13 0 13 C0 8.71 0 4.42 0 0 Z " fill="#E8A62C" transform="translate(0,74)"/>
<path d="M0 0 C5.55737523 3.43130916 5.55737523 3.43130916 6.54296875 6.92431641 C6.73653855 9.14573576 6.72117028 11.2726963 6.625 13.5 C6.63144531 14.24636719 6.63789063 14.99273437 6.64453125 15.76171875 C6.54798022 20.72093072 5.68554753 23.41107731 2 27 C-1.20173254 28.60086627 -4.52577059 28.49917089 -8 28 C-10.8100346 26.20636089 -12.50940468 24.98119065 -14 22 C-14.17741233 19.37953265 -14.27747251 16.80989117 -14.3125 14.1875 C-14.34150391 13.47529297 -14.37050781 12.76308594 -14.40039062 12.02929688 C-14.44530392 8.29458362 -14.14178313 6.22071395 -12.10546875 3.05078125 C-8.61167563 -0.35226399 -4.73689017 -1.09438497 0 0 Z " fill="#13253C" transform="translate(18,41)"/>
<path d="M0 0 C2.371875 -0.103125 4.74375 -0.20625 7.1875 -0.3125 C7.92508545 -0.35802002 8.6626709 -0.40354004 9.42260742 -0.45043945 C13.29088848 -0.53140955 14.8804027 -0.09261691 17.9609375 2.29296875 C20.58363235 5.77482226 20.55300543 7.73395813 20 12 C19.01 13.485 19.01 13.485 18 15 C17.34 15 16.68 15 16 15 C16.3609375 15.77085938 16.721875 16.54171875 17.09375 17.3359375 C17.5578125 18.33882812 18.021875 19.34171875 18.5 20.375 C18.9640625 21.37273438 19.428125 22.37046875 19.90625 23.3984375 C21 26 21 26 21 28 C19.02 28 17.04 28 15 28 C14.68546875 27.28972656 14.3709375 26.57945313 14.046875 25.84765625 C13.40492187 24.46900391 13.40492187 24.46900391 12.75 23.0625 C12.33234375 22.14597656 11.9146875 21.22945312 11.484375 20.28515625 C10.06626271 17.53387148 10.06626271 17.53387148 6 17 C6 20.63 6 24.26 6 28 C4.02 28 2.04 28 0 28 C0 18.76 0 9.52 0 0 Z " fill="#1F243A" transform="translate(26,41)"/>
<path d="M0 0 C0.99 0.66 1.98 1.32 3 2 C2.34 3.32 1.68 4.64 1 6 C-2.3 6 -5.6 6 -9 6 C-8.67 7.32 -8.34 8.64 -8 10 C-5.74786624 11.03426427 -5.74786624 11.03426427 -3.0625 11.5625 C1.79126489 12.68689733 1.79126489 12.68689733 4 16 C4.5 19.375 4.5 19.375 4 23 C1.37156373 26.16760269 -0.1880942 27.66622788 -4.2265625 28.41015625 C-8.88533952 28.58933998 -12.31115537 28.09386969 -16 25 C-16 24.34 -16 23.68 -16 23 C-15.34 23 -14.68 23 -14 23 C-14 22.34 -14 21.68 -14 21 C-13.484375 21.165 -12.96875 21.33 -12.4375 21.5 C-9.26636124 22.15049 -6.22781666 22.0620734 -3 22 C-2.40929986 20.05396726 -2.40929986 20.05396726 -2 18 C-3.90667768 16.09332232 -7.1892267 16.15828186 -9.7734375 15.6953125 C-12.32592424 14.89822015 -13.39362733 14.12162428 -15 12 C-15.63109197 7.74012918 -15.45683283 5.71570476 -13.125 2.0625 C-8.83247161 -0.77056874 -5.02392499 -0.80893707 0 0 Z " fill="#10253C" transform="translate(63,41)"/>
<path d="M0 0 C3.96 0 7.92 0 12 0 C12 0.99 12 1.98 12 3 C9.69 3 7.38 3 5 3 C5 5.97 5 8.94 5 12 C6.98 12 8.96 12 11 12 C10.01 12.495 10.01 12.495 9 13 C9 13.66 9 14.32 9 15 C7.68 15 6.36 15 5 15 C5 18.96 5 22.92 5 27 C3.35 27 1.7 27 0 27 C0 18.09 0 9.18 0 0 Z " fill="#0C273E" transform="translate(27,42)"/>
<path d="M0 0 C3.0625 0.1875 3.0625 0.1875 5.0625 2.1875 C5.328125 5.12109375 5.328125 5.12109375 5.3125 8.625 C5.31765625 9.77871094 5.3228125 10.93242188 5.328125 12.12109375 C5.0625 15.1875 5.0625 15.1875 3.0625 18.1875 C0.5625 18.5 0.5625 18.5 -1.9375 18.1875 C-3.9375 16.1875 -3.9375 16.1875 -4.16796875 12.74609375 C-4.16397911 11.37232696 -4.14923177 9.99855886 -4.125 8.625 C-4.12435547 7.92697266 -4.12371094 7.22894531 -4.12304688 6.50976562 C-4.06848754 0.25969069 -4.06848754 0.25969069 0 0 Z " fill="#DB2536" transform="translate(13.9375,45.8125)"/>
<path d="M0 0 C3.375 -0.125 3.375 -0.125 7 0 C7.66 0.66 8.32 1.32 9 2 C8.46428571 5.53571429 8.46428571 5.53571429 7 7 C4.66702567 7.04092937 2.33294775 7.04241723 0 7 C0 4.69 0 2.38 0 0 Z " fill="#E32939" transform="translate(32,46)"/>
<path d="M0 0 C1.65 0 3.3 0 5 0 C4.34 1.32 3.68 2.64 3 4 C0.03 3.67 -2.94 3.34 -6 3 C-6 2.67 -6 2.34 -6 2 C-4.02 2 -2.04 2 0 2 C0 1.34 0 0.68 0 0 Z " fill="#252338" transform="translate(61,43)"/>
</svg>
